<?xml version="1.0" encoding="UTF-8"?>
<svg version="1.1" xmlns="http://www.w3.org/2000/svg" width="512" height="512">
<path d="M0 0 C0.98584076 0.00054382 1.97168152 0.00108765 2.98739624 0.00164795 C19.35690674 0.04301309 35.11789842 1.0175184 51.1875 4.375 C52.20424805 4.58398926 53.22099609 4.79297852 54.26855469 5.00830078 C91.50281869 12.92102642 126.12956103 29.09107587 156.1875 52.375 C157.08597656 53.06078125 157.98445313 53.7465625 158.91015625 54.453125 C174.46302342 66.57992476 189.09791145 80.79632064 201.1875 96.375 C201.950625 97.30957031 202.71375 98.24414062 203.5 99.20703125 C230.5420054 132.96620145 247.73935513 174.75073002 254.1875 217.375 C254.36482666 218.49962646 254.54215332 219.62425293 254.72485352 220.78295898 C256.37625708 232.33690444 256.54420897 243.77965547 256.5 255.4375 C256.49726578 256.93159393 256.49726578 256.93159393 256.49447632 258.45587158 C256.44973255 272.96830287 255.99219043 287.09809519 253.1875 301.375 C253.02652832 302.27057617 252.86555664 303.16615234 252.69970703 304.08886719 C244.81047508 347.69563051 225.12100867 388.83356217 196.1875 422.375 C195.55328125 423.12007813 194.9190625 423.86515625 194.265625 424.6328125 C182.45448485 438.13779833 169.70389772 450.80918743 155.1875 461.375 C154.03755169 462.23149066 152.88781411 463.08826433 151.73828125 463.9453125 C143.54660474 469.9859414 135.03104922 475.34505071 126.1875 480.375 C125.55569824 480.73948242 124.92389648 481.10396484 124.27294922 481.47949219 C98.24416464 496.37750327 68.82611377 506.02291257 39.1875 510.375 C37.98504639 510.55160156 36.78259277 510.72820312 35.54370117 510.91015625 C23.82743596 512.51411689 12.18834274 512.77574553 0.375 512.75 C-0.61183777 512.74912384 -1.59867554 512.74824768 -2.61541748 512.74734497 C-67.56969852 512.55782667 -129.98321624 487.47829016 -176.8125 442.375 C-177.47185547 441.74287598 -178.13121094 441.11075195 -178.81054688 440.45947266 C-188.29880305 431.31502521 -197.0387044 422.01765991 -204.8125 411.375 C-205.67056152 410.22394983 -206.52863451 409.07290823 -207.38671875 407.921875 C-213.42486829 399.73069386 -218.78345521 391.21695895 -223.8125 382.375 C-224.17698242 381.74319824 -224.54146484 381.11139648 -224.91699219 380.46044922 C-239.84723018 354.37535999 -249.32635054 325.03914886 -253.8125 295.375 C-254.07740234 293.69132324 -254.07740234 293.69132324 -254.34765625 291.97363281 C-256.0045586 280.36052257 -256.21123513 268.84320055 -256.1875 257.125 C-256.18695618 256.11298523 -256.18641235 255.10097046 -256.18585205 254.05828857 C-256.1451051 237.52382605 -255.22136907 221.60435136 -251.8125 205.375 C-251.60351074 204.35970215 -251.39452148 203.3444043 -251.17919922 202.29833984 C-242.40130189 160.98633315 -223.39863066 122.3544774 -195.8125 90.375 C-195.17828125 89.62992187 -194.5440625 88.88484375 -193.890625 88.1171875 C-182.07948485 74.61220167 -169.32889772 61.94081257 -154.8125 51.375 C-153.66255169 50.51850934 -152.51281411 49.66173567 -151.36328125 48.8046875 C-143.17160474 42.7640586 -134.65604922 37.40494929 -125.8125 32.375 C-125.18069824 32.01051758 -124.54889648 31.64603516 -123.89794922 31.27050781 C-97.86916464 16.37249673 -68.45111377 6.72708743 -38.8125 2.375 C-37.61004639 2.19839844 -36.40759277 2.02179687 -35.16870117 1.83984375 C-23.45224155 0.2358565 -11.81347836 -0.02463344 0 0 Z M-158.79345703 114.15625 C-164.28478906 120.19073918 -169.12460842 126.70677793 -173.8125 133.375 C-174.21871582 133.94718262 -174.62493164 134.51936523 -175.04345703 135.10888672 C-190.19177418 156.71344112 -201.94681518 182.21052851 -207.32284451 208.10340691 C-207.8125 210.375 -207.8125 210.375 -208.42583561 212.41607857 C-209.28345109 216.13179376 -209.40258467 218.41274775 -207.36865044 221.72948837 C-205.06596881 224.37800584 -202.64209663 226.81579872 -200.11694336 229.25341797 C-199.16904319 230.20341034 -198.22332553 231.15558467 -197.27963257 232.10975647 C-194.71679248 234.68825285 -192.12405846 237.23461082 -189.52436137 239.77587271 C-186.80483204 242.44392464 -184.11257424 245.13923121 -181.41688538 247.83132935 C-176.88595767 252.34843411 -172.33679984 256.84646365 -167.7746582 261.33203125 C-161.92610468 267.08258573 -156.10779666 272.86275873 -150.29878902 278.65322685 C-145.29639568 283.63933051 -140.28109765 288.61239511 -135.26329732 293.58298731 C-133.65489207 295.17716173 -132.04809797 296.77294734 -130.44145012 298.36889267 C-127.91178084 300.87992055 -125.37420104 303.38269025 -122.83037949 305.87937737 C-121.45742042 307.23005477 -120.09152534 308.58790105 -118.72587585 309.94596863 C-110.59480002 317.89415822 -104.42029914 320.48294755 -93.01953125 320.5168457 C-92.36814682 320.52032013 -91.71676239 320.52379456 -91.04563904 320.52737427 C-89.63960611 320.53468793 -88.23356197 320.54005651 -86.82751465 320.54366493 C-84.58836839 320.55089961 -82.34943265 320.56662036 -80.11035156 320.58500671 C-73.74661279 320.63712587 -67.38299025 320.68533102 -61.01904297 320.70092773 C-57.11501578 320.71111815 -53.21152292 320.74071837 -49.30770874 320.78224754 C-47.83446327 320.79440886 -46.36114183 320.79970659 -44.8878479 320.79744911 C-25.83091067 320.77544796 -10.30513664 326.05691778 3.45703125 339.515625 C19.63540938 356.45778923 21.62846385 376.35608803 21.69921875 398.6484375 C21.71609891 400.66868151 21.73425354 402.68891523 21.75361633 404.70913696 C21.80076036 409.97954084 21.83079865 415.24990299 21.85705566 420.52044678 C21.88704249 425.91736081 21.93350973 431.31413152 21.97851562 436.7109375 C22.06414285 447.26554946 22.13166688 457.82019126 22.1875 468.375 C25.40544418 467.90026329 28.62292407 467.42244801 31.84033203 466.9440918 C32.74769608 466.81026848 33.65506012 466.67644516 34.58992004 466.53856659 C40.47979007 465.66092918 46.29549501 464.69118726 52.0625 463.1875 C53.27510498 462.87449951 53.27510498 462.87449951 54.51220703 462.55517578 C76.57289173 456.63769172 98.42599356 447.5253197 117.1875 434.375 C118.25484375 433.65183594 119.3221875 432.92867188 120.421875 432.18359375 C127.01866538 427.65235273 133.24952883 422.78710144 139.3125 417.5625 C140.25367676 416.75401611 140.25367676 416.75401611 141.21386719 415.92919922 C144.59509633 412.96303114 147.41375701 409.93785745 150.1875 406.375 C149.25478271 405.4684668 148.32206543 404.56193359 147.36108398 403.62792969 C143.86102516 400.21926105 140.37827037 396.79334035 136.90014648 393.36230469 C135.40048698 391.88758854 133.89634565 390.41741422 132.38745117 388.95214844 C116.71631306 373.72252399 107.02577932 359.7395262 106.68798828 337.13265991 C106.67575241 335.06739718 106.6782594 333.00277328 106.6875 330.9375 C106.91295354 317.18970591 106.91295354 317.18970591 100.4765625 305.3515625 C99.92742187 304.90554688 99.37828125 304.45953125 98.8125 304 C98.26851563 303.53851563 97.72453125 303.07703125 97.1640625 302.6015625 C92.21374225 299.52962464 87.39870742 299.12513096 81.67602539 299.11962891 C80.94821869 299.11600845 80.22041199 299.112388 79.47055054 299.10865784 C77.89755056 299.10179255 76.32452691 299.099253 74.75151253 299.10060501 C72.247384 299.10157716 69.74367676 299.08854313 67.23960876 299.07162476 C60.12225681 299.0255887 53.00494701 299.00080008 45.88745117 298.99414062 C41.52311964 298.98907444 37.15922467 298.9645632 32.79504204 298.92881393 C31.14677004 298.91912649 29.49843709 298.91662236 27.85014534 298.92198563 C8.284632 298.98261212 -8.99509298 294.6786265 -23.59765625 280.69140625 C-37.49151795 266.16043625 -41.97996084 250.4562246 -42.0625 230.75 C-42.0934375 228.93822266 -42.0934375 228.93822266 -42.125 227.08984375 C-42.19550508 210.71503812 -37.64261991 197.62516813 -26.2890625 185.6640625 C-16.70716688 176.80761009 -5.75490909 172.79182785 7.0625 171.4375 C13.08690065 170.74617534 16.2897464 170.07523228 20.1875 165.375 C21.33917203 161.91998392 21.33042875 159.18309036 21.36328125 155.5390625 C21.38652149 154.14972513 21.41064039 152.76040224 21.43554688 151.37109375 C21.47028845 149.20156762 21.49979543 147.03256012 21.51342773 144.86279297 C21.62697681 129.71709366 24.32622688 115.19764218 35.015625 103.8203125 C36.39743399 102.42619874 36.39743399 102.42619874 36.1875 100.375 C36.75339844 100.11460938 37.31929687 99.85421875 37.90234375 99.5859375 C40.39481863 98.26513884 42.4990135 96.69843792 44.75 95 C54.16166575 88.31716041 63.93967659 86.26314399 75.25 86.1640625 C77.03386354 86.13600614 78.81771759 86.10734177 80.6015625 86.078125 C83.39941258 86.03682106 86.19708323 85.99991 88.99511719 85.97363281 C91.70544355 85.94600558 94.41497918 85.90015316 97.125 85.8515625 C97.95845947 85.84830963 98.79191895 85.84505676 99.65063477 85.84170532 C104.31668341 85.74314793 107.38864244 85.36963513 111.1875 82.375 C113.46287692 79.80316686 113.46287692 79.80316686 115.1875 77.375 C40.03553719 27.03328211 -63.28636082 33.71391073 -158.79345703 114.15625 Z M147.91796875 107.58984375 C147.40878906 108.15832031 146.89960938 108.72679688 146.375 109.3125 C135.96354702 119.98423931 122.92228433 127.35977279 107.85440063 127.56381226 C107.04908905 127.57111359 106.24377747 127.57841492 105.4140625 127.5859375 C103.68488633 127.61400391 101.95571979 127.64266836 100.2265625 127.671875 C97.51888276 127.71309376 94.81138316 127.75001087 92.10351562 127.77636719 C89.47749456 127.80410011 86.85227197 127.84996238 84.2265625 127.8984375 C83.42529938 127.90169037 82.62403625 127.90494324 81.79849243 127.90829468 C75.89042515 128.03638054 70.60775274 128.87407217 66.3125 133.3125 C64.03923289 137.48015636 64.05574107 141.39212422 64.01171875 146.08984375 C63.98848274 147.43035359 63.96436398 148.77084836 63.93945312 150.11132812 C63.90470477 152.19744411 63.87519246 154.28301787 63.86157227 156.36938477 C63.73146535 173.08512077 59.559727 186.43618264 48.25 199.0625 C39.22666916 207.65320538 26.86441703 212.70516922 14.53515625 213.55859375 C9.12988783 213.94730378 9.12988783 213.94730378 4.1875 216.0625 C-0.46449889 221.44137372 -0.30274161 227.60353778 0.1875 234.375 C1.10686855 241.53458256 3.19158041 246.67867237 8.6875 251.625 C15.06368779 256.08833145 20.90614267 256.49610489 28.62304688 256.5168457 C29.3427063 256.52032013 30.06236572 256.52379456 30.80383301 256.52737427 C32.3588332 256.53469413 33.91384358 256.54005946 35.46885681 256.54366493 C37.94322936 256.55088922 40.41741025 256.56660234 42.89172363 256.58500671 C49.92453272 256.63717658 56.95723621 256.6853479 63.99023438 256.70092773 C68.30272166 256.71110324 72.61472328 256.74066762 76.92701721 256.78224754 C78.55656737 256.79442938 80.18618651 256.79970268 81.81578064 256.79744911 C101.29373874 256.77715233 117.2246905 261.5971124 131.45703125 275.515625 C146.54182763 291.31257915 149.81687372 310.09848306 149.39697266 331.29589844 C149.03260541 340.63268901 149.03260541 340.63268901 153.08203125 348.6640625 C154.42653 349.92707648 155.79771256 351.16199873 157.1875 352.375 C158.88091392 354.08664082 160.56664252 355.80590697 162.24609375 357.53125 C164.03648883 359.31508686 165.8294985 361.09630305 167.625 362.875 C168.54732422 363.7928125 169.46964844 364.710625 170.41992188 365.65625 C172.67349899 367.89815055 174.92939075 370.137666 177.1875 372.375 C180.71142132 369.07668759 183.20594111 366.01791172 185.45703125 361.75390625 C186.31941406 360.12074463 186.31941406 360.12074463 187.19921875 358.45458984 C187.79347656 357.2939502 188.38773438 356.13331055 189 354.9375 C189.30808594 354.33786438 189.61617187 353.73822876 189.93359375 353.12042236 C216.11094053 301.93848209 219.94355941 243.28672067 202.40625 188.69140625 C192.26989276 158.70512316 174.94986096 127.77686153 151.1875 106.375 C149.13547501 106.14454198 149.13547501 106.14454198 147.91796875 107.58984375 Z M-210.8125 279.375 C-212.49012682 323.8321107 -183.64255105 370.72088841 -154.8125 402.375 C-138.38086875 419.95531715 -119.18022851 434.32685639 -97.8125 445.375 C-96.74273926 445.9333252 -96.74273926 445.9333252 -95.65136719 446.50292969 C-74.06782294 457.63149997 -50.32554648 465.26030024 -26.13475037 467.90284729 C-25.32510047 467.99163934 -24.51545057 468.08043139 -23.68126583 468.1719141 C-23.06457311 468.23893245 -22.44788038 468.30595079 -21.8125 468.375 C-21.71967982 456.90907668 -21.64867388 445.44324326 -21.60525131 433.97702026 C-21.58440702 428.65235083 -21.5561469 423.32793911 -21.51074219 418.00341797 C-21.46717206 412.86165851 -21.44333915 407.72014642 -21.43299103 402.57821655 C-21.42561971 400.61986398 -21.41122523 398.66152441 -21.38957977 396.70327759 C-21.36039732 393.9529328 -21.35655018 391.20360055 -21.35839844 388.453125 C-21.33682678 387.24794472 -21.33682678 387.24794472 -21.31481934 386.01841736 C-21.36208885 379.48626439 -23.28735036 374.36136419 -27.5234375 369.3515625 C-28.07257813 368.90554688 -28.62171875 368.45953125 -29.1875 368 C-29.73148438 367.53851563 -30.27546875 367.07703125 -30.8359375 366.6015625 C-35.58229556 363.65619406 -40.23601228 363.12342674 -45.72900391 363.10375977 C-46.72552979 363.09591965 -46.72552979 363.09591965 -47.7421875 363.08792114 C-49.17603845 363.07773122 -50.60992586 363.07190953 -52.0438118 363.07003975 C-54.32449467 363.06634891 -56.60475308 363.04954577 -58.88534546 363.02928162 C-65.36667928 362.97415141 -71.84807599 362.94333832 -78.32958984 362.91870117 C-82.30483305 362.90268639 -86.27977705 362.87231998 -90.25486374 362.83393669 C-91.75768189 362.82240308 -93.26055389 362.81635738 -94.76341629 362.81625557 C-107.27000352 362.81510176 -118.64612202 361.28694871 -129.8125 355.375 C-130.93735306 354.78282936 -130.93735306 354.78282936 -132.08493042 354.17869568 C-141.7683968 348.52271754 -149.13726624 340.53532966 -156.9453125 332.59765625 C-158.47323722 331.05971441 -160.00213365 329.5227374 -161.5319519 327.98667908 C-165.52853506 323.96929606 -169.5133601 319.94046021 -173.49530029 315.90856934 C-179.90000102 309.42815763 -186.32392096 302.966778 -192.74538803 296.50298882 C-194.98707998 294.24355287 -197.22453517 291.97999078 -199.46121216 289.71559143 C-200.82061347 288.34298329 -202.18005729 286.97041723 -203.53955078 285.59790039 C-204.16387497 284.96369675 -204.78819916 284.3294931 -205.43144226 283.67607117 C-206.87290435 282.22338923 -208.33986544 280.79607187 -209.8125 279.375 C-210.1425 279.375 -210.4725 279.375 -210.8125 279.375 Z " fill="#000000" transform="translate(255.8125,-0.375)"/>
</svg>
